<svg width="101" height="99" viewBox="0 0 101 99" fill="none" xmlns="http://www.w3.org/2000/svg">
<path d="M43.2151 36.7595L40.5659 43.5429L47.5288 41.4415L68.2722 22.2377L63.9584 17.5592L43.2151 36.7595ZM38.9545 45.9958C38.6888 45.9958 38.4338 45.8893 38.2461 45.687C37.9982 45.4172 37.9238 45.0267 38.0584 44.686L41.508 35.8508C41.5611 35.7194 41.6461 35.5952 41.7524 35.4958L63.3599 15.4933C63.7495 15.1383 64.3587 15.1596 64.7164 15.5465L70.3334 21.6413C70.5069 21.8295 70.5955 22.0779 70.5849 22.33C70.5742 22.5855 70.4644 22.8234 70.2803 23.0009L48.6692 43.0034C48.5594 43.1028 48.4319 43.1738 48.2938 43.2164L39.2307 45.9567C39.1386 45.9851 39.043 45.9958 38.9545 45.9958Z" fill="#2C4E9E"/>
<path d="M47.5822 42.4817C47.2139 42.4817 46.8774 42.2296 46.7818 41.8569L46.5339 40.8701L45.8822 40.8204C45.5033 40.792 45.1916 40.5045 45.1279 40.1247L44.9614 39.0917H44.2177C43.9981 39.0917 43.7891 39.003 43.6333 38.8468C43.4775 38.6906 43.3925 38.4812 43.3925 38.2575L43.396 37.5227L42.3689 37.363C41.9191 37.292 41.611 36.866 41.6854 36.4152C41.7527 35.9644 42.1848 35.6485 42.6275 35.7266L44.3558 36.0035C44.756 36.0638 45.0535 36.4117 45.05 36.8199L45.0464 37.434H45.6662C46.0699 37.434 46.417 37.7322 46.4808 38.1333L46.6543 39.2195L47.2493 39.2621C47.5999 39.2905 47.901 39.539 47.986 39.8833L48.3826 41.4487C48.496 41.8924 48.2303 42.3397 47.7876 42.4533C47.7168 42.471 47.6495 42.4817 47.5822 42.4817Z" fill="#2C4E9E"/>
<path d="M65.4178 16.0471L69.9157 20.5516L70.7586 19.7033C70.9817 19.4832 71.1057 19.1885 71.1057 18.8726C71.1057 18.5461 70.9853 18.2443 70.7586 18.0136L67.9394 15.1987C67.4932 14.7479 66.707 14.7479 66.2713 15.1951L65.4178 16.0471ZM69.9157 22.8731C69.6713 22.8731 69.4269 22.7773 69.2392 22.5892L63.3814 16.7286C63.2007 16.5476 63.1016 16.3026 63.1016 16.0471C63.1016 15.7915 63.2007 15.5466 63.3814 15.3655L64.9113 13.8392C66.0659 12.6713 68.1272 12.6607 69.2959 13.8427L72.115 16.6576C72.7065 17.254 73.0288 18.042 73.0252 18.8833C73.0217 19.7139 72.6959 20.4913 72.1115 21.0663L70.5957 22.5892C70.408 22.7773 70.1601 22.8731 69.9157 22.8731Z" fill="#2C4E9E"/>
<path d="M24.7139 92.2839H76.4147V97.8428H24.7139V92.2839Z" stroke="#2C4E9E" stroke-width="2" stroke-miterlimit="10" stroke-linecap="round" stroke-linejoin="round"/>
<path d="M61.6991 74.6064L66.3386 92.2839H34.8003L39.4398 74.6064H61.6991Z" stroke="#2C4E9E" stroke-width="2" stroke-miterlimit="10" stroke-linecap="round" stroke-linejoin="round"/>
<path d="M48.517 68.9447C48.517 70.0735 49.4414 70.9822 50.5641 70.9822C51.7045 70.9822 52.6112 70.0735 52.6112 68.9447C52.6112 67.8053 51.7045 66.8823 50.5641 66.8823C49.4414 66.8823 48.517 67.8053 48.517 68.9447ZM6.25818 63.2688H94.8736C97.3917 63.2688 99.4529 61.1922 99.4529 58.6648V69.179C99.4529 72.1501 97.0163 74.6065 94.0342 74.6065H7.10817C4.12611 74.6065 1.67529 72.1501 1.67529 69.179V58.6648C1.67529 61.1922 3.73653 63.2688 6.25818 63.2688Z" stroke="#2C4E9E" stroke-width="2" stroke-miterlimit="10" stroke-linecap="round" stroke-linejoin="round"/>
<path d="M39.4398 74.6065H7.10817C4.12611 74.6065 1.67529 72.1501 1.67529 69.179V6.42748C1.67529 3.43864 4.12611 1 7.10817 1H68.7646" stroke="#2C4E9E" stroke-width="2" stroke-miterlimit="2.61313" stroke-linecap="round" stroke-linejoin="round"/>
<path d="M68.7648 1H94.0344C97.0165 1 99.4531 3.43864 99.4531 6.42748V69.179C99.4531 72.1501 97.0165 74.6065 94.0344 74.6065H61.6992" stroke="#2C4E9E" stroke-width="2" stroke-miterlimit="2.61313" stroke-linecap="round" stroke-linejoin="round"/>
<path d="M99.4529 58.6648C99.4529 61.1922 97.3917 63.2688 94.8736 63.2688H6.25818C3.73653 63.2688 1.67529 61.1922 1.67529 58.6648" stroke="#2C4E9E" stroke-width="2" stroke-miterlimit="2.61313" stroke-linecap="round" stroke-linejoin="round"/>
<path d="M50.5642 66.8822C51.7046 66.8822 52.6112 67.8051 52.6112 68.9446C52.6112 70.0734 51.7046 70.9821 50.5642 70.9821C49.4415 70.9821 48.5171 70.0734 48.5171 68.9446C48.5171 67.8051 49.4415 66.8822 50.5642 66.8822Z" stroke="#2C4E9E" stroke-width="2" stroke-miterlimit="2.61313" stroke-linecap="round" stroke-linejoin="round"/>
<path d="M51.9456 27.9706H24.459C24.1898 27.9706 23.9702 27.5411 23.9702 27.0086C23.9702 26.4761 24.1898 26.0466 24.459 26.0466H51.9456C52.2148 26.0466 52.4344 26.4761 52.4344 27.0086C52.4344 27.5411 52.2148 27.9706 51.9456 27.9706Z" fill="#2C4E9E"/>
<path d="M42.8861 36.9513H24.2996C24.119 36.9513 23.9702 36.5218 23.9702 35.9893C23.9702 35.4569 24.119 35.0273 24.2996 35.0273H42.8861C43.0667 35.0273 43.2155 35.4569 43.2155 35.9893C43.2155 36.5218 43.0667 36.9513 42.8861 36.9513Z" fill="#2C4E9E"/>
<path d="M73.4608 36.9513H54.8743C54.6937 36.9513 54.5449 36.5218 54.5449 35.9893C54.5449 35.4569 54.6937 35.0273 54.8743 35.0273H73.4608C73.6414 35.0273 73.7902 35.4569 73.7902 35.9893C73.7902 36.5218 73.6414 36.9513 73.4608 36.9513Z" fill="#2C4E9E"/>
<path d="M73.2096 27.9706H64.7592C64.6742 27.9706 64.6069 27.5411 64.6069 27.0086C64.6069 26.4761 64.6742 26.0466 64.7592 26.0466H73.2096C73.291 26.0466 73.3583 26.4761 73.3583 27.0086C73.3583 27.5411 73.291 27.9706 73.2096 27.9706Z" fill="#2C4E9E"/>
<path d="M59.7302 46.5887H24.5971C24.25 46.5887 23.9702 46.1592 23.9702 45.6268C23.9702 45.0943 24.25 44.6648 24.5971 44.6648H59.7302C60.0737 44.6648 60.3535 45.0943 60.3535 45.6268C60.3535 46.1592 60.0737 46.5887 59.7302 46.5887Z" fill="#2C4E9E"/>
<path d="M73.4608 46.5887H54.8743C54.6937 46.5887 54.5449 46.1592 54.5449 45.6268C54.5449 45.0943 54.6937 44.6648 54.8743 44.6648H73.4608C73.6414 44.6648 73.7902 45.0943 73.7902 45.6268C73.7902 46.1592 73.6414 46.5887 73.4608 46.5887Z" fill="#2C4E9E"/>
</svg>
