<svg width="95" height="98" viewBox="0 0 95 98" fill="currentColor" xmlns="http://www.w3.org/2000/svg">
<path d="M39.6908 82.9663H56.0816V19.9009L47.8877 2.99328L39.6908 19.9009V82.9663ZM56.882 84.5679H38.8903C38.4472 84.5679 38.0898 84.2097 38.0898 83.7685V19.7174C38.0898 19.596 38.1194 19.4746 38.1696 19.368L47.1669 0.811369C47.3028 0.533079 47.5805 0.358398 47.8877 0.358398C48.1919 0.358398 48.4725 0.533079 48.6084 0.811369L57.6028 19.368C57.656 19.4746 57.6825 19.596 57.6825 19.7174V83.7685C57.6825 84.2097 57.3251 84.5679 56.882 84.5679Z" fill="#2C4E9E"/>
<path d="M53.3077 23.1014C53.1009 23.1014 52.8942 23.0215 52.7406 22.8675L50.7261 20.8395L48.7086 22.8675C48.4309 23.1458 47.9938 23.1813 47.6748 22.9504L44.6205 20.7389L42.7183 22.382C42.4583 22.607 42.0832 22.6396 41.7878 22.4619L38.2787 20.3688C37.8976 20.1438 37.7736 19.6524 38.001 19.2705C38.2285 18.8915 38.7159 18.7642 39.0969 18.9922L42.1098 20.7892L44.0534 19.1106C44.334 18.8678 44.7416 18.8501 45.0429 19.0662L48.0588 21.2511L50.1619 19.1372C50.3125 18.9863 50.5134 18.9034 50.7261 18.9034C50.9388 18.9034 51.1455 18.9863 51.2932 19.1372L53.3934 21.2511L56.4151 19.0662C56.7725 18.8086 57.2747 18.8915 57.5317 19.2468C57.7886 19.608 57.7089 20.1083 57.3515 20.3688L53.7744 22.9504C53.6356 23.054 53.4702 23.1014 53.3077 23.1014Z" fill="#2C4E9E"/>
<path d="M52.9446 84.5677C52.5044 84.5677 52.144 84.2094 52.144 83.7683V22.0323C52.144 21.5911 52.5044 21.2329 52.9446 21.2329C53.3876 21.2329 53.745 21.5911 53.745 22.0323V83.7683C53.745 84.2094 53.3876 84.5677 52.9446 84.5677Z" fill="#2C4E9E"/>
<path d="M48.4961 84.5679C48.056 84.5679 47.6986 84.2127 47.6956 83.7716L47.4209 21.7306C47.418 21.2865 47.7754 20.9253 48.2185 20.9253H48.2214C48.6615 20.9253 49.0189 21.2805 49.0219 21.7246L49.2966 83.7656C49.2996 84.2068 48.9421 84.5679 48.4991 84.5679H48.4961Z" fill="#2C4E9E"/>
<path d="M42.5827 84.5679C42.1397 84.5679 41.7793 84.2097 41.7793 83.7686V21.0022C41.7793 20.5611 42.1397 20.2 42.5827 20.2C43.0228 20.2 43.3832 20.5611 43.3832 21.0022V83.7686C43.3832 84.2097 43.0228 84.5679 42.5827 84.5679Z" fill="#2C4E9E"/>
<path d="M39.6908 84.5677V90.4562C39.6908 93.695 42.3227 96.3299 45.5601 96.3299H50.2153C53.4497 96.3299 56.0816 93.695 56.0816 90.4562V84.5677H39.6908ZM50.2153 97.9345H45.5601C41.4424 97.9345 38.0898 94.5802 38.0898 90.4562V83.7684C38.0898 83.3243 38.4472 82.9661 38.8903 82.9661H56.882C57.3251 82.9661 57.6825 83.3243 57.6825 83.7684V90.4562C57.6825 94.5802 54.3329 97.9345 50.2153 97.9345Z" fill="#2C4E9E"/>
<path d="M11.9569 14.9834H22.4755V4.43503H11.9569V14.9834ZM23.2759 16.588H11.1594C10.7163 16.588 10.3589 16.2268 10.3589 15.7857V3.63569C10.3589 3.19161 10.7163 2.83337 11.1594 2.83337H23.2759C23.719 2.83337 24.0764 3.19161 24.0764 3.63569V15.7857C24.0764 16.2268 23.719 16.588 23.2759 16.588Z" fill="#2C4E9E"/>
<path d="M73.0922 96.2442H83.6107V85.6958H73.0922V96.2442ZM84.4112 97.8488H72.2917C71.8516 97.8488 71.4912 97.4905 71.4912 97.0465V84.8964C71.4912 84.4523 71.8516 84.0941 72.2917 84.0941H84.4112C84.8513 84.0941 85.2117 84.4523 85.2117 84.8964V97.0465C85.2117 97.4905 84.8513 97.8488 84.4112 97.8488Z" fill="#2C4E9E"/>
<path d="M73.0922 14.9834H83.6107V4.43503H73.0922V14.9834ZM84.4112 16.588H72.2917C71.8516 16.588 71.4912 16.2268 71.4912 15.7857V3.63569C71.4912 3.19161 71.8516 2.83337 72.2917 2.83337H84.4112C84.8513 2.83337 85.2117 3.19161 85.2117 3.63569V15.7857C85.2117 16.2268 84.8513 16.588 84.4112 16.588Z" fill="#2C4E9E"/>
<path d="M11.9569 96.2442H22.4755V85.6958H11.9569V96.2442ZM23.2759 97.8488H11.1594C10.7163 97.8488 10.3589 97.4905 10.3589 97.0465V84.8964C10.3589 84.4523 10.7163 84.0941 11.1594 84.0941H23.2759C23.719 84.0941 24.0764 84.4523 24.0764 84.8964V97.0465C24.0764 97.4905 23.719 97.8488 23.2759 97.8488Z" fill="#2C4E9E"/>
<path d="M43.7432 10.5101H23.2762C22.8361 10.5101 22.4757 10.1519 22.4757 9.71076C22.4757 9.26668 22.8361 8.90845 23.2762 8.90845H43.7432C44.1833 8.90845 44.5437 9.26668 44.5437 9.71076C44.5437 10.1519 44.1833 10.5101 43.7432 10.5101ZM72.2919 10.5101H52.0346C51.5945 10.5101 51.2341 10.1519 51.2341 9.71076C51.2341 9.26668 51.5945 8.90845 52.0346 8.90845H72.2919C72.735 8.90845 73.0924 9.26668 73.0924 9.71076C73.0924 10.1519 72.735 10.5101 72.2919 10.5101ZM17.2209 39.627C16.7778 39.627 16.4204 39.2687 16.4204 38.8247V15.7858C16.4204 15.3417 16.7778 14.9835 17.2209 14.9835C17.661 14.9835 18.0214 15.3417 18.0214 15.7858V38.8247C18.0214 39.2687 17.661 39.627 17.2209 39.627ZM78.356 39.627C77.913 39.627 77.5556 39.2687 77.5556 38.8247V15.7858C77.5556 15.3417 77.913 14.9835 78.356 14.9835C78.7962 14.9835 79.1536 15.3417 79.1536 15.7858V38.8247C79.1536 39.2687 78.7962 39.627 78.356 39.627ZM17.2209 85.6959C16.7778 85.6959 16.4204 85.3377 16.4204 84.8965V58.3642C16.4204 57.9231 16.7778 57.5619 17.2209 57.5619C17.661 57.5619 18.0214 57.9231 18.0214 58.3642V84.8965C18.0214 85.3377 17.661 85.6959 17.2209 85.6959ZM78.356 85.6959C77.913 85.6959 77.5556 85.3377 77.5556 84.8965V58.3642C77.5556 57.9231 77.913 57.5619 78.356 57.5619C78.7962 57.5619 79.1536 57.9231 79.1536 58.3642V84.8965C79.1536 85.3377 78.7962 85.6959 78.356 85.6959ZM38.6036 91.7709H23.2762C22.8361 91.7709 22.4757 91.4127 22.4757 90.9716C22.4757 90.5275 22.8361 90.1693 23.2762 90.1693H38.6036C39.0466 90.1693 39.4041 90.5275 39.4041 90.9716C39.4041 91.4127 39.0466 91.7709 38.6036 91.7709ZM72.2919 91.7709H57.3692C56.9291 91.7709 56.5687 91.4127 56.5687 90.9716C56.5687 90.5275 56.9291 90.1693 57.3692 90.1693H72.2919C72.735 90.1693 73.0924 90.5275 73.0924 90.9716C73.0924 91.4127 72.735 91.7709 72.2919 91.7709Z" fill="#2C4E9E"/>
<path d="M2.59068 57.5617H38.0897V39.6268H2.59068V57.5617ZM38.8901 59.1663H1.79315C1.35008 59.1663 0.992676 58.8081 0.992676 58.364V38.8245C0.992676 38.3834 1.35008 38.0251 1.79315 38.0251H38.8901C39.3332 38.0251 39.6907 38.3834 39.6907 38.8245V58.364C39.6907 58.8081 39.3332 59.1663 38.8901 59.1663ZM57.6823 57.5617H93.1784V39.6268H57.6823V57.5617ZM93.9789 59.1663H56.8819C56.4388 59.1663 56.0814 58.8081 56.0814 58.364V38.8245C56.0814 38.3834 56.4388 38.0251 56.8819 38.0251H93.9789C94.4219 38.0251 94.7794 38.3834 94.7794 38.8245V58.364C94.7794 58.8081 94.4219 59.1663 93.9789 59.1663Z" fill="#2C4E9E"/>
<path d="M85.3893 59.1664C84.9463 59.1664 84.5889 58.8082 84.5889 58.3641V47.8305C84.5889 47.3864 84.9463 47.0282 85.3893 47.0282C85.8324 47.0282 86.1898 47.3864 86.1898 47.8305V58.3641C86.1898 58.8082 85.8324 59.1664 85.3893 59.1664Z" fill="#2C4E9E"/>
<path d="M77.7858 59.1666C77.3428 59.1666 76.9854 58.8084 76.9854 58.3643V51.8955C76.9854 51.4544 77.3428 51.0962 77.7858 51.0962C78.2289 51.0962 78.5863 51.4544 78.5863 51.8955V58.3643C78.5863 58.8084 78.2289 59.1666 77.7858 59.1666Z" fill="#2C4E9E"/>
<path d="M70.1892 59.1663C69.7491 59.1663 69.3887 58.808 69.3887 58.364V47.8304C69.3887 47.3863 69.7491 47.0281 70.1892 47.0281C70.6323 47.0281 70.9926 47.3863 70.9926 47.8304V58.364C70.9926 58.808 70.6323 59.1663 70.1892 59.1663Z" fill="#2C4E9E"/>
<path d="M62.5881 59.1666C62.145 59.1666 61.7876 58.8084 61.7876 58.3643V51.8955C61.7876 51.4544 62.145 51.0962 62.5881 51.0962C63.0312 51.0962 63.3886 51.4544 63.3886 51.8955V58.3643C63.3886 58.8084 63.0312 59.1666 62.5881 59.1666Z" fill="#2C4E9E"/>
<path d="M32.1941 59.1666C31.751 59.1666 31.3936 58.8084 31.3936 58.3643V51.8955C31.3936 51.4544 31.751 51.0962 32.1941 51.0962C32.6371 51.0962 32.9945 51.4544 32.9945 51.8955V58.3643C32.9945 58.8084 32.6371 59.1666 32.1941 59.1666Z" fill="#2C4E9E"/>
<path d="M24.5998 59.1663C24.1567 59.1663 23.7993 58.808 23.7993 58.364V47.8304C23.7993 47.3863 24.1567 47.0281 24.5998 47.0281C25.0399 47.0281 25.3973 47.3863 25.3973 47.8304V58.364C25.3973 58.808 25.0399 59.1663 24.5998 59.1663Z" fill="#2C4E9E"/>
<path d="M16.9963 59.1666C16.5562 59.1666 16.1958 58.8084 16.1958 58.3643V51.8955C16.1958 51.4544 16.5562 51.0962 16.9963 51.0962C17.4364 51.0962 17.7938 51.4544 17.7938 51.8955V58.3643C17.7938 58.8084 17.4364 59.1666 16.9963 59.1666Z" fill="#2C4E9E"/>
<path d="M9.39325 59.1664C8.95313 59.1664 8.59277 58.8082 8.59277 58.3641V47.8305C8.59277 47.3864 8.95313 47.0282 9.39325 47.0282C9.83632 47.0282 10.1937 47.3864 10.1937 47.8305V58.3641C10.1937 58.8082 9.83632 59.1664 9.39325 59.1664Z" fill="#2C4E9E"/>
</svg>
