<svg width="70" height="96" viewBox="0 0 70 96" fill="currentColor" xmlns="http://www.w3.org/2000/svg">
<path d="M1.81898 94.272H67.528V9.33683H52.826V19.4828C52.826 19.9146 52.4751 20.2689 52.0417 20.2689H17.3001C16.8667 20.2689 16.5159 19.9146 16.5159 19.4828V9.33683H1.81898V94.272ZM68.3122 95.8441H1.03474C0.601336 95.8441 0.250488 95.4924 0.250488 95.0581V8.54822C0.250488 8.11642 0.601336 7.76477 1.03474 7.76477H17.3001C17.7335 7.76477 18.0844 8.11642 18.0844 8.54822V18.6968H51.2575V8.54822C51.2575 8.11642 51.6083 7.76477 52.0417 7.76477H68.3122C68.7431 7.76477 69.0939 8.11642 69.0939 8.54822V95.0581C69.0939 95.4924 68.7431 95.8441 68.3122 95.8441Z" fill="#2C4E9E"/>
<path d="M7.88134 88.188H61.4629V15.4207H52.8259V19.4827C52.8259 19.9145 52.475 20.2687 52.0416 20.2687H17.3C16.8666 20.2687 16.5158 19.9145 16.5158 19.4827V15.4207H7.88134V88.188ZM62.2472 89.76H7.0971C6.66628 89.76 6.31543 89.4084 6.31543 88.974V14.6321C6.31543 14.2003 6.66628 13.8486 7.0971 13.8486H17.3C17.7334 13.8486 18.0843 14.2003 18.0843 14.6321V18.6967H51.2574V14.6321C51.2574 14.2003 51.6082 13.8486 52.0416 13.8486H62.2472C62.678 13.8486 63.0314 14.2003 63.0314 14.6321V88.974C63.0314 89.4084 62.678 89.76 62.2472 89.76Z" fill="#2C4E9E"/>
<path d="M18.0846 18.6967H51.2577V7.74912H46.5161C46.0853 7.74912 45.7345 7.39489 45.7345 6.9605V1.57206H23.613V6.9605C23.613 7.39489 23.2622 7.74912 22.8288 7.74912H18.0846V18.6967ZM52.042 20.2687H17.3004C16.867 20.2687 16.5161 19.9145 16.5161 19.4827V6.9605C16.5161 6.52612 16.867 6.17706 17.3004 6.17706H22.0445V0.78603C22.0445 0.351645 22.398 0 22.8288 0H46.5161C46.9495 0 47.3004 0.351645 47.3004 0.78603V6.17706H52.042C52.4754 6.17706 52.8262 6.52612 52.8262 6.9605V19.4827C52.8262 19.9145 52.4754 20.2687 52.042 20.2687Z" fill="#2C4E9E"/>
<path d="M34.6693 6.95792C33.186 6.95792 31.9786 8.168 31.9786 9.65473C31.9786 11.1466 33.186 12.3593 34.6693 12.3593C36.1553 12.3593 37.3626 11.1466 37.3626 9.65473C37.3626 8.168 36.1553 6.95792 34.6693 6.95792ZM34.6693 13.9314C32.3218 13.9314 30.4102 12.0128 30.4102 9.65473C30.4102 7.30181 32.3218 5.38586 34.6693 5.38586C37.0169 5.38586 38.9311 7.30181 38.9311 9.65473C38.9311 12.0128 37.0169 13.9314 34.6693 13.9314Z" fill="#2C4E9E"/>
<path d="M20.1271 42.893H26.334V37.246H20.1271V42.893ZM27.1182 44.4651H19.3428C18.9069 44.4651 18.5586 44.1134 18.5586 43.679V36.46C18.5586 36.0282 18.9069 35.674 19.3428 35.674H27.1182C27.5516 35.674 27.9025 36.0282 27.9025 36.46V43.679C27.9025 44.1134 27.5516 44.4651 27.1182 44.4651Z" fill="#2C4E9E"/>
<path d="M20.1271 58.2697H26.334V52.6202H20.1271V58.2697ZM27.1182 59.8392H19.3428C18.9069 59.8392 18.5586 59.4876 18.5586 59.0532V51.8341C18.5586 51.4023 18.9069 51.0481 19.3428 51.0481H27.1182C27.5516 51.0481 27.9025 51.4023 27.9025 51.8341V59.0532C27.9025 59.4876 27.5516 59.8392 27.1182 59.8392Z" fill="#2C4E9E"/>
<path d="M20.1271 73.636H26.334V67.9942H20.1271V73.636ZM27.1182 75.2081H19.3428C18.9069 75.2081 18.5586 74.8539 18.5586 74.4195V67.2107C18.5586 66.7764 18.9069 66.4221 19.3428 66.4221H27.1182C27.5516 66.4221 27.9025 66.7764 27.9025 67.2107V74.4195C27.9025 74.8539 27.5516 75.2081 27.1182 75.2081Z" fill="#2C4E9E"/>
<path d="M40.5799 45.9466C40.5438 45.9466 40.5103 45.944 40.4767 45.9389C40.2368 45.9078 40.0227 45.7656 39.9014 45.5536L38.1291 42.4845C37.9124 42.1096 38.0414 41.6286 38.4155 41.4114C38.7921 41.1943 39.2694 41.3235 39.4861 41.6984L40.7476 43.8807L49.4465 35.1542C49.751 34.8465 50.2463 34.8465 50.5533 35.1542C50.8602 35.4593 50.8602 35.9584 50.5533 36.2635L41.132 45.7165C40.9849 45.8639 40.7837 45.9466 40.5799 45.9466Z" fill="#2C4E9E"/>
<path d="M40.5799 60.951C40.5438 60.951 40.5103 60.951 40.4767 60.9458C40.2368 60.9148 40.0227 60.7726 39.9014 60.5606L38.1291 57.4914C37.9124 57.1139 38.0414 56.6356 38.4155 56.4184C38.7921 56.2012 39.2694 56.3279 39.4861 56.7028L40.7476 58.8877L49.4465 50.1612C49.751 49.8509 50.2463 49.8535 50.5533 50.1612C50.8602 50.4663 50.8602 50.9627 50.5533 51.2704L41.132 60.7209C40.9849 60.8708 40.7837 60.951 40.5799 60.951Z" fill="#2C4E9E"/>
<path d="M40.5798 75.9657C40.5437 75.9657 40.5102 75.9631 40.4766 75.9579C40.2341 75.9269 40.0226 75.7847 39.9013 75.5727L38.129 72.4984C37.9123 72.1209 38.0413 71.64 38.418 71.4228C38.792 71.2056 39.2719 71.3349 39.486 71.7098L40.7475 73.8998L49.4464 65.1656C49.7509 64.8604 50.2462 64.8579 50.5532 65.163C50.8602 65.4707 50.8602 65.9697 50.5557 66.2748L41.1319 75.7356C40.9848 75.8856 40.7836 75.9657 40.5798 75.9657Z" fill="#2C4E9E"/>
</svg>
