<svg width="121" height="95" viewBox="0 0 121 95" fill="currentColor" xmlns="http://www.w3.org/2000/svg">
<path d="M6.65625 22.769C4.37384 22.769 2.51836 24.6287 2.51836 26.9163V75.4125C2.51836 77.7001 4.37384 79.5639 6.65625 79.5639H14.4517C14.9649 79.5639 15.3959 79.963 15.4328 80.4773L16.262 92.1868L24.9442 86.2991L34.6157 79.7326C34.7758 79.6215 34.9687 79.5639 35.1658 79.5639H81.1546C83.437 79.5639 85.2924 77.7001 85.2924 75.4125V26.9163C85.2924 24.6287 83.437 22.769 81.1546 22.769H6.65625ZM15.4041 94.9435C15.2604 94.9435 15.1126 94.9106 14.9731 94.8447C14.6611 94.6925 14.4517 94.3798 14.423 94.0301L13.5363 81.5306H6.65625C3.29011 81.5306 0.556152 78.7863 0.556152 75.4125V26.9163C0.556152 23.5425 3.29011 20.7982 6.65625 20.7982H81.1546C84.5207 20.7982 87.2588 23.5425 87.2588 26.9163V75.4125C87.2588 78.7863 84.5207 81.5306 81.1546 81.5306H35.4695L26.0485 87.9284L15.9542 94.7748C15.79 94.8859 15.597 94.9435 15.4041 94.9435Z" fill="#2C4E9E"/>
<path d="M66.0191 36.4576H22.362C21.8201 36.4576 21.3809 36.0174 21.3809 35.4702C21.3809 34.9312 21.8201 34.4868 22.362 34.4868H66.0191C66.5569 34.4868 67.0002 34.9312 67.0002 35.4702C67.0002 36.0174 66.5569 36.4576 66.0191 36.4576Z" fill="#2C4E9E"/>
<path d="M44.1844 47.3031H22.362C21.8201 47.3031 21.3809 46.8628 21.3809 46.3197C21.3809 45.7725 21.8201 45.3323 22.362 45.3323H44.1844C44.7262 45.3323 45.1655 45.7725 45.1655 46.3197C45.1655 46.8628 44.7262 47.3031 44.1844 47.3031Z" fill="#2C4E9E"/>
<path d="M53.5562 58.1362H22.362C21.8201 58.1362 21.3809 57.7001 21.3809 57.1529C21.3809 56.6098 21.8201 56.1696 22.362 56.1696H53.5562C54.0981 56.1696 54.5414 56.6098 54.5414 57.1529C54.5414 57.7001 54.0981 58.1362 53.5562 58.1362Z" fill="#2C4E9E"/>
<path d="M66.0191 68.9858H22.362C21.8201 68.9858 21.3809 68.5414 21.3809 67.9984C21.3809 67.4553 21.8201 67.015 22.362 67.015H66.0191C66.5569 67.015 67.0002 67.4553 67.0002 67.9984C67.0002 68.5414 66.5569 68.9858 66.0191 68.9858Z" fill="#2C4E9E"/>
<path d="M87.2586 59.642L95.8874 65.5009L104.574 71.3927L105.403 59.6791C105.44 59.1648 105.867 58.7657 106.384 58.7657H114.184C116.466 58.7657 118.321 56.9019 118.321 54.6143V6.1222C118.321 3.83049 116.466 1.97079 114.184 1.97079H39.6811C37.3987 1.97079 35.5433 3.83049 35.5433 6.1222V20.7982H81.1585C84.5246 20.7982 87.2586 23.5425 87.2586 26.9163V59.642ZM105.436 74.1494C105.243 74.1494 105.05 74.0918 104.886 73.9807L94.7872 67.1343L85.7274 60.9792C85.4565 60.7941 85.2923 60.4896 85.2923 60.1646V26.9163C85.2923 24.6287 83.4409 22.769 81.1585 22.769H34.5622C34.0203 22.769 33.5811 22.3246 33.5811 21.7815V6.1222C33.5811 2.74429 36.315 0 39.6811 0H114.184C117.55 0 120.284 2.74429 120.284 6.1222V54.6143C120.284 57.9922 117.55 60.7365 114.184 60.7365H107.299L106.417 73.2318C106.388 73.5816 106.183 73.8943 105.867 74.0465C105.727 74.1164 105.584 74.1494 105.436 74.1494Z" fill="#2C4E9E"/>
</svg>
